<mxfile host="app.diagrams.net" agent="Mozilla/5.0 (Windows NT 10.0; Win64; x64) AppleWebKit/537.36 (KHTML, like Gecko) Chrome/122.0.0.0 Safari/537.36" version="26.0.6" pages="2">
  <diagram name="HFTPolicy" id="-cTT98FBJnrN7GUKnVA_">
    <mxGraphModel dx="1177" dy="1257" grid="1" gridSize="10" guides="1" tooltips="1" connect="1" arrows="1" fold="1" page="0" pageScale="1" pageWidth="827" pageHeight="1169" math="0" shadow="0">
      <root>
        <mxCell id="0" />
        <mxCell id="1" parent="0" />
        <mxCell id="fW6s4l17m6dkninJZm_C-3" value="" style="edgeStyle=orthogonalEdgeStyle;rounded=0;orthogonalLoop=1;jettySize=auto;html=1;" edge="1" parent="1" source="fW6s4l17m6dkninJZm_C-1" target="fW6s4l17m6dkninJZm_C-2">
          <mxGeometry relative="1" as="geometry" />
        </mxCell>
        <mxCell id="fW6s4l17m6dkninJZm_C-1" value="HFTPolicy" style="rounded=0;whiteSpace=wrap;html=1;verticalAlign=top;" vertex="1" parent="1">
          <mxGeometry x="-320" y="-250" width="280" height="1610" as="geometry" />
        </mxCell>
        <mxCell id="fW6s4l17m6dkninJZm_C-2" value="qtapi::IPolicy" style="rounded=0;whiteSpace=wrap;html=1;" vertex="1" parent="1">
          <mxGeometry x="-320" y="-400" width="280" height="80" as="geometry" />
        </mxCell>
        <mxCell id="fW6s4l17m6dkninJZm_C-4" value="Init( )" style="rounded=0;whiteSpace=wrap;html=1;fillColor=#f5f5f5;fontColor=#333333;strokeColor=#666666;" vertex="1" parent="1">
          <mxGeometry x="-300" y="-200" width="240" height="80" as="geometry" />
        </mxCell>
        <mxCell id="fW6s4l17m6dkninJZm_C-5" value="Release( )" style="rounded=0;whiteSpace=wrap;html=1;fillColor=#f5f5f5;fontColor=#333333;strokeColor=#666666;" vertex="1" parent="1">
          <mxGeometry x="-300" y="-100" width="240" height="80" as="geometry" />
        </mxCell>
        <mxCell id="fW6s4l17m6dkninJZm_C-6" value="OnSetParam( )&lt;div&gt;// 通过配置文件设置内部参数&lt;/div&gt;" style="rounded=0;whiteSpace=wrap;html=1;" vertex="1" parent="1">
          <mxGeometry x="-300" width="240" height="80" as="geometry" />
        </mxCell>
        <mxCell id="fW6s4l17m6dkninJZm_C-7" value="OnSetFutureTrader( )&lt;div&gt;// 通过配置文件设置 HtPolicy::trader_&lt;/div&gt;" style="rounded=0;whiteSpace=wrap;html=1;" vertex="1" parent="1">
          <mxGeometry x="-300" y="100" width="240" height="80" as="geometry" />
        </mxCell>
        <mxCell id="fW6s4l17m6dkninJZm_C-8" value="OnStarted( )" style="rounded=0;whiteSpace=wrap;html=1;verticalAlign=top;" vertex="1" parent="1">
          <mxGeometry x="-300" y="200" width="240" height="360" as="geometry" />
        </mxCell>
        <mxCell id="fW6s4l17m6dkninJZm_C-9" value="OnStopped( )" style="rounded=0;whiteSpace=wrap;html=1;verticalAlign=top;" vertex="1" parent="1">
          <mxGeometry x="-300" y="580" width="240" height="140" as="geometry" />
        </mxCell>
        <mxCell id="fW6s4l17m6dkninJZm_C-10" value="OnOneSecond( )" style="rounded=0;whiteSpace=wrap;html=1;" vertex="1" parent="1">
          <mxGeometry x="-300" y="960" width="240" height="80" as="geometry" />
        </mxCell>
        <mxCell id="fW6s4l17m6dkninJZm_C-11" value="OnNewFutureMD( )" style="rounded=0;whiteSpace=wrap;html=1;" vertex="1" parent="1">
          <mxGeometry x="-300" y="1060" width="240" height="80" as="geometry" />
        </mxCell>
        <mxCell id="fW6s4l17m6dkninJZm_C-12" value="OnFOrderChanged( )" style="rounded=0;whiteSpace=wrap;html=1;" vertex="1" parent="1">
          <mxGeometry x="-300" y="1160" width="240" height="80" as="geometry" />
        </mxCell>
        <mxCell id="fW6s4l17m6dkninJZm_C-13" value="OnFOrderFilled( )" style="rounded=0;whiteSpace=wrap;html=1;" vertex="1" parent="1">
          <mxGeometry x="-300" y="1260" width="240" height="80" as="geometry" />
        </mxCell>
        <mxCell id="fW6s4l17m6dkninJZm_C-14" value="1. 读取 trade config&lt;div&gt;2. 读取 pre_position config&lt;/div&gt;&lt;div&gt;3. 解析得到 pre_positions&lt;/div&gt;" style="rounded=0;whiteSpace=wrap;html=1;align=left;" vertex="1" parent="1">
          <mxGeometry x="-280" y="240" width="200" height="60" as="geometry" />
        </mxCell>
        <mxCell id="fW6s4l17m6dkninJZm_C-15" value="4. 设置 display 输出模块" style="rounded=0;whiteSpace=wrap;html=1;align=left;" vertex="1" parent="1">
          <mxGeometry x="-280" y="320" width="200" height="40" as="geometry" />
        </mxCell>
        <mxCell id="fW6s4l17m6dkninJZm_C-16" value="5. 初始化交易模块" style="rounded=0;whiteSpace=wrap;html=1;align=left;" vertex="1" parent="1">
          <mxGeometry x="-280" y="380" width="200" height="40" as="geometry" />
        </mxCell>
        <mxCell id="fW6s4l17m6dkninJZm_C-17" value="6. 创建并启动 signal_receiver" style="rounded=0;whiteSpace=wrap;html=1;align=left;" vertex="1" parent="1">
          <mxGeometry x="-280" y="440" width="200" height="40" as="geometry" />
        </mxCell>
        <mxCell id="fW6s4l17m6dkninJZm_C-18" value="7. 启动 event consumer" style="rounded=0;whiteSpace=wrap;html=1;align=left;" vertex="1" parent="1">
          <mxGeometry x="-280" y="500" width="200" height="40" as="geometry" />
        </mxCell>
        <mxCell id="fW6s4l17m6dkninJZm_C-19" value="InitializeAllTradingElements" style="rounded=0;whiteSpace=wrap;html=1;align=center;verticalAlign=top;" vertex="1" parent="1">
          <mxGeometry x="80" y="120" width="280" height="560" as="geometry" />
        </mxCell>
        <mxCell id="fW6s4l17m6dkninJZm_C-20" value="1. 初始化 FutureStrategyMaster" style="rounded=0;whiteSpace=wrap;html=1;align=left;" vertex="1" parent="1">
          <mxGeometry x="100" y="160" width="240" height="40" as="geometry" />
        </mxCell>
        <mxCell id="fW6s4l17m6dkninJZm_C-22" value="2. 初始化 FutureTradeMaps" style="rounded=0;whiteSpace=wrap;html=1;align=left;" vertex="1" parent="1">
          <mxGeometry x="100" y="220" width="240" height="40" as="geometry" />
        </mxCell>
        <mxCell id="fW6s4l17m6dkninJZm_C-24" value="3. 初始化 FutureTradingTables" style="rounded=0;whiteSpace=wrap;html=1;align=left;" vertex="1" parent="1">
          <mxGeometry x="100" y="280" width="240" height="40" as="geometry" />
        </mxCell>
        <mxCell id="fW6s4l17m6dkninJZm_C-25" value="4. 初始化 FutureTradingStatus" style="rounded=0;whiteSpace=wrap;html=1;align=left;" vertex="1" parent="1">
          <mxGeometry x="100" y="340" width="240" height="40" as="geometry" />
        </mxCell>
        <mxCell id="fW6s4l17m6dkninJZm_C-26" value="5. 初始化 FutureTradingPosition&lt;div&gt;6. 使用 pre_position 设置仓位&lt;br&gt;&lt;/div&gt;" style="rounded=0;whiteSpace=wrap;html=1;align=left;" vertex="1" parent="1">
          <mxGeometry x="100" y="400" width="240" height="60" as="geometry" />
        </mxCell>
        <mxCell id="fW6s4l17m6dkninJZm_C-28" value="&lt;div&gt;7. 初始化 FutureTradingHours&lt;/div&gt;" style="rounded=0;whiteSpace=wrap;html=1;align=left;" vertex="1" parent="1">
          <mxGeometry x="100" y="480" width="240" height="40" as="geometry" />
        </mxCell>
        <mxCell id="fW6s4l17m6dkninJZm_C-29" value="&lt;div&gt;8. 初始化 BlockingFutureData，推 test 事件&lt;/div&gt;" style="rounded=0;whiteSpace=wrap;html=1;align=left;" vertex="1" parent="1">
          <mxGeometry x="100" y="540" width="240" height="40" as="geometry" />
        </mxCell>
        <mxCell id="fW6s4l17m6dkninJZm_C-30" value="&lt;div&gt;9. 初始化 FutureTradersAPI&lt;/div&gt;" style="rounded=0;whiteSpace=wrap;html=1;align=left;" vertex="1" parent="1">
          <mxGeometry x="100" y="600" width="240" height="40" as="geometry" />
        </mxCell>
      </root>
    </mxGraphModel>
  </diagram>
  <diagram id="ai68HdCF-v5yR4_sxB1E" name="数据结构">
    <mxGraphModel dx="2234" dy="1180" grid="1" gridSize="10" guides="1" tooltips="1" connect="1" arrows="1" fold="1" page="0" pageScale="1" pageWidth="827" pageHeight="1169" math="0" shadow="0">
      <root>
        <mxCell id="0" />
        <mxCell id="1" parent="0" />
        <mxCell id="gl2pg5933DISATZ6bNUu-1" value="FutureStrategyMaster" style="rounded=0;whiteSpace=wrap;html=1;verticalAlign=top;fontStyle=1" vertex="1" parent="1">
          <mxGeometry x="-280" y="-200" width="480" height="620" as="geometry" />
        </mxCell>
        <mxCell id="gl2pg5933DISATZ6bNUu-2" value="*" style="rounded=0;whiteSpace=wrap;html=1;fillColor=#ffe6cc;strokeColor=#d79b00;" vertex="1" parent="1">
          <mxGeometry x="-260" y="-160" width="40" height="40" as="geometry" />
        </mxCell>
        <mxCell id="gl2pg5933DISATZ6bNUu-3" value="*" style="rounded=0;whiteSpace=wrap;html=1;fillColor=#ffe6cc;strokeColor=#d79b00;" vertex="1" parent="1">
          <mxGeometry x="-220" y="-160" width="40" height="40" as="geometry" />
        </mxCell>
        <mxCell id="gl2pg5933DISATZ6bNUu-4" value="*" style="rounded=0;whiteSpace=wrap;html=1;fillColor=#ffe6cc;strokeColor=#d79b00;" vertex="1" parent="1">
          <mxGeometry x="-180" y="-160" width="40" height="40" as="geometry" />
        </mxCell>
        <mxCell id="gl2pg5933DISATZ6bNUu-5" value="" style="shape=process;whiteSpace=wrap;html=1;backgroundOutline=1;" vertex="1" parent="1">
          <mxGeometry x="-480" y="-40" width="120" height="40" as="geometry" />
        </mxCell>
        <mxCell id="gl2pg5933DISATZ6bNUu-6" value="strategy_list" style="rounded=0;whiteSpace=wrap;html=1;" vertex="1" parent="1">
          <mxGeometry x="-120" y="-160" width="120" height="40" as="geometry" />
        </mxCell>
        <mxCell id="gl2pg5933DISATZ6bNUu-8" style="edgeStyle=orthogonalEdgeStyle;rounded=0;orthogonalLoop=1;jettySize=auto;html=1;exitX=1;exitY=0.5;exitDx=0;exitDy=0;entryX=0.5;entryY=0;entryDx=0;entryDy=0;" edge="1" parent="1" source="gl2pg5933DISATZ6bNUu-7" target="gl2pg5933DISATZ6bNUu-2">
          <mxGeometry relative="1" as="geometry" />
        </mxCell>
        <mxCell id="gl2pg5933DISATZ6bNUu-7" value="BaseFutureStrategy" style="rounded=0;whiteSpace=wrap;html=1;" vertex="1" parent="1">
          <mxGeometry x="-480" y="-200" width="120" height="40" as="geometry" />
        </mxCell>
        <mxCell id="gl2pg5933DISATZ6bNUu-9" value="" style="shape=curlyBracket;whiteSpace=wrap;html=1;rounded=1;labelPosition=left;verticalLabelPosition=middle;align=right;verticalAlign=middle;rotation=-90;" vertex="1" parent="1">
          <mxGeometry x="-210" y="-170" width="20" height="120" as="geometry" />
        </mxCell>
        <mxCell id="gl2pg5933DISATZ6bNUu-10" value="strategy_id_size" style="rounded=0;whiteSpace=wrap;html=1;" vertex="1" parent="1">
          <mxGeometry x="-260" y="-100" width="120" height="40" as="geometry" />
        </mxCell>
        <mxCell id="gl2pg5933DISATZ6bNUu-15" value="intiial(tradeday, config)" style="rounded=0;whiteSpace=wrap;html=1;fontSize=12;" vertex="1" parent="1">
          <mxGeometry x="-260" width="440" height="40" as="geometry" />
        </mxCell>
        <mxCell id="gl2pg5933DISATZ6bNUu-16" value="on_future_signal(signal)" style="rounded=0;whiteSpace=wrap;html=1;fontSize=12;" vertex="1" parent="1">
          <mxGeometry x="-260" y="60" width="440" height="40" as="geometry" />
        </mxCell>
        <mxCell id="gl2pg5933DISATZ6bNUu-17" value="on_order_cancel_finish(策略单，交易单)" style="rounded=0;whiteSpace=wrap;html=1;fontSize=12;" vertex="1" parent="1">
          <mxGeometry x="-260" y="120" width="440" height="40" as="geometry" />
        </mxCell>
        <mxCell id="gl2pg5933DISATZ6bNUu-18" value="on_order_finished(策略单, 完成类型, 交易单)" style="rounded=0;whiteSpace=wrap;html=1;fontSize=12;" vertex="1" parent="1">
          <mxGeometry x="-260" y="180" width="440" height="40" as="geometry" />
        </mxCell>
        <mxCell id="gl2pg5933DISATZ6bNUu-19" value="on_order_filled(策略单, 完成类型, 交易单, 成交价，成交量)" style="rounded=0;whiteSpace=wrap;html=1;fontSize=12;" vertex="1" parent="1">
          <mxGeometry x="-260" y="240" width="440" height="40" as="geometry" />
        </mxCell>
        <mxCell id="gl2pg5933DISATZ6bNUu-20" value="freeze_strategies_by_contract(contract_id)" style="rounded=0;whiteSpace=wrap;html=1;fontSize=12;" vertex="1" parent="1">
          <mxGeometry x="-260" y="300" width="440" height="40" as="geometry" />
        </mxCell>
        <mxCell id="gl2pg5933DISATZ6bNUu-22" value="report_final_status( )" style="rounded=0;whiteSpace=wrap;html=1;fontSize=12;" vertex="1" parent="1">
          <mxGeometry x="-260" y="360" width="440" height="40" as="geometry" />
        </mxCell>
        <mxCell id="gl2pg5933DISATZ6bNUu-23" value="FutureTradeMaps" style="rounded=0;whiteSpace=wrap;html=1;verticalAlign=top;fontStyle=1" vertex="1" parent="1">
          <mxGeometry x="-280" y="480" width="480" height="240" as="geometry" />
        </mxCell>
        <mxCell id="gl2pg5933DISATZ6bNUu-24" value="contract_id_map" style="swimlane;whiteSpace=wrap;html=1;" vertex="1" parent="1">
          <mxGeometry x="-520" y="480" width="200" height="90" as="geometry" />
        </mxCell>
        <mxCell id="gl2pg5933DISATZ6bNUu-25" value="" style="childLayout=tableLayout;recursiveResize=0;shadow=0;fillColor=none;" vertex="1" parent="gl2pg5933DISATZ6bNUu-24">
          <mxGeometry y="20" width="200" height="68" as="geometry" />
        </mxCell>
        <mxCell id="gl2pg5933DISATZ6bNUu-26" value="" style="shape=tableRow;horizontal=0;startSize=0;swimlaneHead=0;swimlaneBody=0;top=0;left=0;bottom=0;right=0;dropTarget=0;collapsible=0;recursiveResize=0;expand=0;fontStyle=0;fillColor=none;strokeColor=inherit;" vertex="1" parent="gl2pg5933DISATZ6bNUu-25">
          <mxGeometry width="200" height="30" as="geometry" />
        </mxCell>
        <mxCell id="gl2pg5933DISATZ6bNUu-27" value="&lt;b&gt;&lt;font style=&quot;font-size: 11px;&quot;&gt;string&lt;/font&gt;&lt;/b&gt;" style="connectable=0;recursiveResize=0;strokeColor=#6c8ebf;fillColor=#dae8fc;align=center;whiteSpace=wrap;html=1;" vertex="1" parent="gl2pg5933DISATZ6bNUu-26">
          <mxGeometry width="100" height="30" as="geometry">
            <mxRectangle width="100" height="30" as="alternateBounds" />
          </mxGeometry>
        </mxCell>
        <mxCell id="gl2pg5933DISATZ6bNUu-28" value="&lt;b&gt;&lt;font&gt;int&lt;/font&gt;&lt;/b&gt;" style="connectable=0;recursiveResize=0;strokeColor=#6c8ebf;fillColor=#dae8fc;align=center;whiteSpace=wrap;html=1;" vertex="1" parent="gl2pg5933DISATZ6bNUu-26">
          <mxGeometry x="100" width="100" height="30" as="geometry">
            <mxRectangle width="100" height="30" as="alternateBounds" />
          </mxGeometry>
        </mxCell>
        <mxCell id="gl2pg5933DISATZ6bNUu-30" style="shape=tableRow;horizontal=0;startSize=0;swimlaneHead=0;swimlaneBody=0;top=0;left=0;bottom=0;right=0;dropTarget=0;collapsible=0;recursiveResize=0;expand=0;fontStyle=0;fillColor=none;strokeColor=inherit;" vertex="1" parent="gl2pg5933DISATZ6bNUu-25">
          <mxGeometry y="30" width="200" height="38" as="geometry" />
        </mxCell>
        <mxCell id="gl2pg5933DISATZ6bNUu-31" value="合约名称" style="connectable=0;recursiveResize=0;strokeColor=inherit;fillColor=none;align=center;whiteSpace=wrap;html=1;" vertex="1" parent="gl2pg5933DISATZ6bNUu-30">
          <mxGeometry width="100" height="38" as="geometry">
            <mxRectangle width="100" height="38" as="alternateBounds" />
          </mxGeometry>
        </mxCell>
        <mxCell id="gl2pg5933DISATZ6bNUu-32" value="合约数组下标" style="connectable=0;recursiveResize=0;strokeColor=inherit;fillColor=none;align=center;whiteSpace=wrap;html=1;" vertex="1" parent="gl2pg5933DISATZ6bNUu-30">
          <mxGeometry x="100" width="100" height="38" as="geometry">
            <mxRectangle width="100" height="38" as="alternateBounds" />
          </mxGeometry>
        </mxCell>
        <mxCell id="gl2pg5933DISATZ6bNUu-38" value="contract_id_map" style="swimlane;whiteSpace=wrap;html=1;" vertex="1" parent="1">
          <mxGeometry x="-260" y="520" width="200" height="90" as="geometry" />
        </mxCell>
        <mxCell id="gl2pg5933DISATZ6bNUu-39" value="" style="childLayout=tableLayout;recursiveResize=0;shadow=0;fillColor=none;" vertex="1" parent="gl2pg5933DISATZ6bNUu-38">
          <mxGeometry y="20" width="200" height="68" as="geometry" />
        </mxCell>
        <mxCell id="gl2pg5933DISATZ6bNUu-40" value="" style="shape=tableRow;horizontal=0;startSize=0;swimlaneHead=0;swimlaneBody=0;top=0;left=0;bottom=0;right=0;dropTarget=0;collapsible=0;recursiveResize=0;expand=0;fontStyle=0;fillColor=none;strokeColor=inherit;" vertex="1" parent="gl2pg5933DISATZ6bNUu-39">
          <mxGeometry width="200" height="30" as="geometry" />
        </mxCell>
        <mxCell id="gl2pg5933DISATZ6bNUu-41" value="&lt;b&gt;&lt;font style=&quot;font-size: 11px;&quot;&gt;string&lt;/font&gt;&lt;/b&gt;" style="connectable=0;recursiveResize=0;strokeColor=#6c8ebf;fillColor=#dae8fc;align=center;whiteSpace=wrap;html=1;" vertex="1" parent="gl2pg5933DISATZ6bNUu-40">
          <mxGeometry width="100" height="30" as="geometry">
            <mxRectangle width="100" height="30" as="alternateBounds" />
          </mxGeometry>
        </mxCell>
        <mxCell id="gl2pg5933DISATZ6bNUu-42" value="&lt;b&gt;&lt;font&gt;int&lt;/font&gt;&lt;/b&gt;" style="connectable=0;recursiveResize=0;strokeColor=#6c8ebf;fillColor=#dae8fc;align=center;whiteSpace=wrap;html=1;" vertex="1" parent="gl2pg5933DISATZ6bNUu-40">
          <mxGeometry x="100" width="100" height="30" as="geometry">
            <mxRectangle width="100" height="30" as="alternateBounds" />
          </mxGeometry>
        </mxCell>
        <mxCell id="gl2pg5933DISATZ6bNUu-43" style="shape=tableRow;horizontal=0;startSize=0;swimlaneHead=0;swimlaneBody=0;top=0;left=0;bottom=0;right=0;dropTarget=0;collapsible=0;recursiveResize=0;expand=0;fontStyle=0;fillColor=none;strokeColor=inherit;" vertex="1" parent="gl2pg5933DISATZ6bNUu-39">
          <mxGeometry y="30" width="200" height="38" as="geometry" />
        </mxCell>
        <mxCell id="gl2pg5933DISATZ6bNUu-44" value="合约名称" style="connectable=0;recursiveResize=0;strokeColor=inherit;fillColor=none;align=center;whiteSpace=wrap;html=1;" vertex="1" parent="gl2pg5933DISATZ6bNUu-43">
          <mxGeometry width="100" height="38" as="geometry">
            <mxRectangle width="100" height="38" as="alternateBounds" />
          </mxGeometry>
        </mxCell>
        <mxCell id="gl2pg5933DISATZ6bNUu-45" value="合约数组下标" style="connectable=0;recursiveResize=0;strokeColor=inherit;fillColor=none;align=center;whiteSpace=wrap;html=1;" vertex="1" parent="gl2pg5933DISATZ6bNUu-43">
          <mxGeometry x="100" width="100" height="38" as="geometry">
            <mxRectangle width="100" height="38" as="alternateBounds" />
          </mxGeometry>
        </mxCell>
        <mxCell id="gl2pg5933DISATZ6bNUu-46" value="contract_name_map" style="swimlane;whiteSpace=wrap;html=1;" vertex="1" parent="1">
          <mxGeometry x="-20" y="520" width="200" height="90" as="geometry" />
        </mxCell>
        <mxCell id="gl2pg5933DISATZ6bNUu-47" value="" style="childLayout=tableLayout;recursiveResize=0;shadow=0;fillColor=none;" vertex="1" parent="gl2pg5933DISATZ6bNUu-46">
          <mxGeometry y="20" width="200" height="68" as="geometry" />
        </mxCell>
        <mxCell id="gl2pg5933DISATZ6bNUu-48" value="" style="shape=tableRow;horizontal=0;startSize=0;swimlaneHead=0;swimlaneBody=0;top=0;left=0;bottom=0;right=0;dropTarget=0;collapsible=0;recursiveResize=0;expand=0;fontStyle=0;fillColor=none;strokeColor=inherit;" vertex="1" parent="gl2pg5933DISATZ6bNUu-47">
          <mxGeometry width="200" height="30" as="geometry" />
        </mxCell>
        <mxCell id="gl2pg5933DISATZ6bNUu-49" value="&lt;b&gt;&lt;font style=&quot;font-size: 11px;&quot;&gt;int&lt;/font&gt;&lt;/b&gt;" style="connectable=0;recursiveResize=0;strokeColor=#6c8ebf;fillColor=#dae8fc;align=center;whiteSpace=wrap;html=1;" vertex="1" parent="gl2pg5933DISATZ6bNUu-48">
          <mxGeometry width="100" height="30" as="geometry">
            <mxRectangle width="100" height="30" as="alternateBounds" />
          </mxGeometry>
        </mxCell>
        <mxCell id="gl2pg5933DISATZ6bNUu-50" value="&lt;b&gt;&lt;font&gt;string&lt;/font&gt;&lt;/b&gt;" style="connectable=0;recursiveResize=0;strokeColor=#6c8ebf;fillColor=#dae8fc;align=center;whiteSpace=wrap;html=1;" vertex="1" parent="gl2pg5933DISATZ6bNUu-48">
          <mxGeometry x="100" width="100" height="30" as="geometry">
            <mxRectangle width="100" height="30" as="alternateBounds" />
          </mxGeometry>
        </mxCell>
        <mxCell id="gl2pg5933DISATZ6bNUu-51" style="shape=tableRow;horizontal=0;startSize=0;swimlaneHead=0;swimlaneBody=0;top=0;left=0;bottom=0;right=0;dropTarget=0;collapsible=0;recursiveResize=0;expand=0;fontStyle=0;fillColor=none;strokeColor=inherit;" vertex="1" parent="gl2pg5933DISATZ6bNUu-47">
          <mxGeometry y="30" width="200" height="38" as="geometry" />
        </mxCell>
        <mxCell id="gl2pg5933DISATZ6bNUu-52" value="合约数组下标" style="connectable=0;recursiveResize=0;strokeColor=inherit;fillColor=none;align=center;whiteSpace=wrap;html=1;" vertex="1" parent="gl2pg5933DISATZ6bNUu-51">
          <mxGeometry width="100" height="38" as="geometry">
            <mxRectangle width="100" height="38" as="alternateBounds" />
          </mxGeometry>
        </mxCell>
        <mxCell id="gl2pg5933DISATZ6bNUu-53" value="合约名称" style="connectable=0;recursiveResize=0;strokeColor=inherit;fillColor=none;align=center;whiteSpace=wrap;html=1;" vertex="1" parent="gl2pg5933DISATZ6bNUu-51">
          <mxGeometry x="100" width="100" height="38" as="geometry">
            <mxRectangle width="100" height="38" as="alternateBounds" />
          </mxGeometry>
        </mxCell>
        <mxCell id="gl2pg5933DISATZ6bNUu-54" value="initialize(jsonfile)" style="rounded=0;whiteSpace=wrap;html=1;fontSize=12;" vertex="1" parent="1">
          <mxGeometry x="-260" y="640" width="440" height="40" as="geometry" />
        </mxCell>
        <mxCell id="gl2pg5933DISATZ6bNUu-55" value="FutureTradingTables" style="rounded=0;whiteSpace=wrap;html=1;verticalAlign=top;fontStyle=1" vertex="1" parent="1">
          <mxGeometry x="-280" y="800" width="480" height="600" as="geometry" />
        </mxCell>
        <mxCell id="gl2pg5933DISATZ6bNUu-72" value="initialize(tradingday)" style="rounded=0;whiteSpace=wrap;html=1;fontSize=12;" vertex="1" parent="1">
          <mxGeometry x="-260" y="1160" width="440" height="40" as="geometry" />
        </mxCell>
        <mxCell id="gl2pg5933DISATZ6bNUu-73" value="inner_order_id" style="rounded=0;whiteSpace=wrap;html=1;" vertex="1" parent="1">
          <mxGeometry x="-250" y="840" width="120" height="40" as="geometry" />
        </mxCell>
        <mxCell id="gl2pg5933DISATZ6bNUu-74" value="mutex" style="rounded=0;whiteSpace=wrap;html=1;" vertex="1" parent="1">
          <mxGeometry x="-100" y="840" width="120" height="40" as="geometry" />
        </mxCell>
        <mxCell id="gl2pg5933DISATZ6bNUu-75" value="date" style="rounded=0;whiteSpace=wrap;html=1;" vertex="1" parent="1">
          <mxGeometry x="50" y="840" width="120" height="40" as="geometry" />
        </mxCell>
        <mxCell id="gl2pg5933DISATZ6bNUu-76" value="qtapi_id_to_inner_id" style="swimlane;whiteSpace=wrap;html=1;" vertex="1" parent="1">
          <mxGeometry x="-250" y="910" width="200" height="90" as="geometry" />
        </mxCell>
        <mxCell id="gl2pg5933DISATZ6bNUu-77" value="" style="childLayout=tableLayout;recursiveResize=0;shadow=0;fillColor=none;" vertex="1" parent="gl2pg5933DISATZ6bNUu-76">
          <mxGeometry y="20" width="200" height="68" as="geometry" />
        </mxCell>
        <mxCell id="gl2pg5933DISATZ6bNUu-78" value="" style="shape=tableRow;horizontal=0;startSize=0;swimlaneHead=0;swimlaneBody=0;top=0;left=0;bottom=0;right=0;dropTarget=0;collapsible=0;recursiveResize=0;expand=0;fontStyle=0;fillColor=none;strokeColor=inherit;" vertex="1" parent="gl2pg5933DISATZ6bNUu-77">
          <mxGeometry width="200" height="30" as="geometry" />
        </mxCell>
        <mxCell id="gl2pg5933DISATZ6bNUu-79" value="&lt;b&gt;&lt;font style=&quot;font-size: 11px;&quot;&gt;int&lt;/font&gt;&lt;/b&gt;" style="connectable=0;recursiveResize=0;strokeColor=#6c8ebf;fillColor=#dae8fc;align=center;whiteSpace=wrap;html=1;" vertex="1" parent="gl2pg5933DISATZ6bNUu-78">
          <mxGeometry width="100" height="30" as="geometry">
            <mxRectangle width="100" height="30" as="alternateBounds" />
          </mxGeometry>
        </mxCell>
        <mxCell id="gl2pg5933DISATZ6bNUu-80" value="&lt;b&gt;&lt;font&gt;int&lt;/font&gt;&lt;/b&gt;" style="connectable=0;recursiveResize=0;strokeColor=#6c8ebf;fillColor=#dae8fc;align=center;whiteSpace=wrap;html=1;" vertex="1" parent="gl2pg5933DISATZ6bNUu-78">
          <mxGeometry x="100" width="100" height="30" as="geometry">
            <mxRectangle width="100" height="30" as="alternateBounds" />
          </mxGeometry>
        </mxCell>
        <mxCell id="gl2pg5933DISATZ6bNUu-81" style="shape=tableRow;horizontal=0;startSize=0;swimlaneHead=0;swimlaneBody=0;top=0;left=0;bottom=0;right=0;dropTarget=0;collapsible=0;recursiveResize=0;expand=0;fontStyle=0;fillColor=none;strokeColor=inherit;" vertex="1" parent="gl2pg5933DISATZ6bNUu-77">
          <mxGeometry y="30" width="200" height="38" as="geometry" />
        </mxCell>
        <mxCell id="gl2pg5933DISATZ6bNUu-82" value="平台订单号" style="connectable=0;recursiveResize=0;strokeColor=inherit;fillColor=none;align=center;whiteSpace=wrap;html=1;" vertex="1" parent="gl2pg5933DISATZ6bNUu-81">
          <mxGeometry width="100" height="38" as="geometry">
            <mxRectangle width="100" height="38" as="alternateBounds" />
          </mxGeometry>
        </mxCell>
        <mxCell id="gl2pg5933DISATZ6bNUu-83" value="本地订单号" style="connectable=0;recursiveResize=0;strokeColor=inherit;fillColor=none;align=center;whiteSpace=wrap;html=1;" vertex="1" parent="gl2pg5933DISATZ6bNUu-81">
          <mxGeometry x="100" width="100" height="38" as="geometry">
            <mxRectangle width="100" height="38" as="alternateBounds" />
          </mxGeometry>
        </mxCell>
        <mxCell id="gl2pg5933DISATZ6bNUu-84" value="order_id_tables" style="swimlane;whiteSpace=wrap;html=1;" vertex="1" parent="1">
          <mxGeometry x="-250" y="1020" width="200" height="90" as="geometry" />
        </mxCell>
        <mxCell id="gl2pg5933DISATZ6bNUu-85" value="" style="childLayout=tableLayout;recursiveResize=0;shadow=0;fillColor=none;" vertex="1" parent="gl2pg5933DISATZ6bNUu-84">
          <mxGeometry y="20" width="200" height="68" as="geometry" />
        </mxCell>
        <mxCell id="gl2pg5933DISATZ6bNUu-86" value="" style="shape=tableRow;horizontal=0;startSize=0;swimlaneHead=0;swimlaneBody=0;top=0;left=0;bottom=0;right=0;dropTarget=0;collapsible=0;recursiveResize=0;expand=0;fontStyle=0;fillColor=none;strokeColor=inherit;" vertex="1" parent="gl2pg5933DISATZ6bNUu-85">
          <mxGeometry width="200" height="30" as="geometry" />
        </mxCell>
        <mxCell id="gl2pg5933DISATZ6bNUu-87" value="&lt;b&gt;&lt;font style=&quot;font-size: 11px;&quot;&gt;int&lt;/font&gt;&lt;/b&gt;" style="connectable=0;recursiveResize=0;strokeColor=#6c8ebf;fillColor=#dae8fc;align=center;whiteSpace=wrap;html=1;" vertex="1" parent="gl2pg5933DISATZ6bNUu-86">
          <mxGeometry width="100" height="30" as="geometry">
            <mxRectangle width="100" height="30" as="alternateBounds" />
          </mxGeometry>
        </mxCell>
        <mxCell id="gl2pg5933DISATZ6bNUu-88" value="&lt;b&gt;&lt;font&gt;TradeinfoOrder&lt;/font&gt;&lt;/b&gt;" style="connectable=0;recursiveResize=0;strokeColor=#6c8ebf;fillColor=#dae8fc;align=center;whiteSpace=wrap;html=1;" vertex="1" parent="gl2pg5933DISATZ6bNUu-86">
          <mxGeometry x="100" width="100" height="30" as="geometry">
            <mxRectangle width="100" height="30" as="alternateBounds" />
          </mxGeometry>
        </mxCell>
        <mxCell id="gl2pg5933DISATZ6bNUu-89" style="shape=tableRow;horizontal=0;startSize=0;swimlaneHead=0;swimlaneBody=0;top=0;left=0;bottom=0;right=0;dropTarget=0;collapsible=0;recursiveResize=0;expand=0;fontStyle=0;fillColor=none;strokeColor=inherit;" vertex="1" parent="gl2pg5933DISATZ6bNUu-85">
          <mxGeometry y="30" width="200" height="38" as="geometry" />
        </mxCell>
        <mxCell id="gl2pg5933DISATZ6bNUu-90" value="本地订单号" style="connectable=0;recursiveResize=0;strokeColor=inherit;fillColor=none;align=center;whiteSpace=wrap;html=1;" vertex="1" parent="gl2pg5933DISATZ6bNUu-89">
          <mxGeometry width="100" height="38" as="geometry">
            <mxRectangle width="100" height="38" as="alternateBounds" />
          </mxGeometry>
        </mxCell>
        <mxCell id="gl2pg5933DISATZ6bNUu-91" value="本地订单数据" style="connectable=0;recursiveResize=0;strokeColor=inherit;fillColor=none;align=center;whiteSpace=wrap;html=1;" vertex="1" parent="gl2pg5933DISATZ6bNUu-89">
          <mxGeometry x="100" width="100" height="38" as="geometry">
            <mxRectangle width="100" height="38" as="alternateBounds" />
          </mxGeometry>
        </mxCell>
        <mxCell id="gl2pg5933DISATZ6bNUu-92" value="order_id_field" style="swimlane;whiteSpace=wrap;html=1;" vertex="1" parent="1">
          <mxGeometry x="-30" y="1020" width="200" height="90" as="geometry" />
        </mxCell>
        <mxCell id="gl2pg5933DISATZ6bNUu-93" value="" style="childLayout=tableLayout;recursiveResize=0;shadow=0;fillColor=none;" vertex="1" parent="gl2pg5933DISATZ6bNUu-92">
          <mxGeometry y="20" width="200" height="68" as="geometry" />
        </mxCell>
        <mxCell id="gl2pg5933DISATZ6bNUu-94" value="" style="shape=tableRow;horizontal=0;startSize=0;swimlaneHead=0;swimlaneBody=0;top=0;left=0;bottom=0;right=0;dropTarget=0;collapsible=0;recursiveResize=0;expand=0;fontStyle=0;fillColor=none;strokeColor=inherit;" vertex="1" parent="gl2pg5933DISATZ6bNUu-93">
          <mxGeometry width="200" height="30" as="geometry" />
        </mxCell>
        <mxCell id="gl2pg5933DISATZ6bNUu-95" value="&lt;b&gt;&lt;font style=&quot;font-size: 11px;&quot;&gt;int&lt;/font&gt;&lt;/b&gt;" style="connectable=0;recursiveResize=0;strokeColor=#6c8ebf;fillColor=#dae8fc;align=center;whiteSpace=wrap;html=1;" vertex="1" parent="gl2pg5933DISATZ6bNUu-94">
          <mxGeometry width="100" height="30" as="geometry">
            <mxRectangle width="100" height="30" as="alternateBounds" />
          </mxGeometry>
        </mxCell>
        <mxCell id="gl2pg5933DISATZ6bNUu-96" value="&lt;b&gt;&lt;font&gt;OrderField&lt;/font&gt;&lt;/b&gt;" style="connectable=0;recursiveResize=0;strokeColor=#6c8ebf;fillColor=#dae8fc;align=center;whiteSpace=wrap;html=1;" vertex="1" parent="gl2pg5933DISATZ6bNUu-94">
          <mxGeometry x="100" width="100" height="30" as="geometry">
            <mxRectangle width="100" height="30" as="alternateBounds" />
          </mxGeometry>
        </mxCell>
        <mxCell id="gl2pg5933DISATZ6bNUu-97" style="shape=tableRow;horizontal=0;startSize=0;swimlaneHead=0;swimlaneBody=0;top=0;left=0;bottom=0;right=0;dropTarget=0;collapsible=0;recursiveResize=0;expand=0;fontStyle=0;fillColor=none;strokeColor=inherit;" vertex="1" parent="gl2pg5933DISATZ6bNUu-93">
          <mxGeometry y="30" width="200" height="38" as="geometry" />
        </mxCell>
        <mxCell id="gl2pg5933DISATZ6bNUu-98" value="本地订单号" style="connectable=0;recursiveResize=0;strokeColor=inherit;fillColor=none;align=center;whiteSpace=wrap;html=1;" vertex="1" parent="gl2pg5933DISATZ6bNUu-97">
          <mxGeometry width="100" height="38" as="geometry">
            <mxRectangle width="100" height="38" as="alternateBounds" />
          </mxGeometry>
        </mxCell>
        <mxCell id="gl2pg5933DISATZ6bNUu-99" value="平台订单数据" style="connectable=0;recursiveResize=0;strokeColor=inherit;fillColor=none;align=center;whiteSpace=wrap;html=1;" vertex="1" parent="gl2pg5933DISATZ6bNUu-97">
          <mxGeometry x="100" width="100" height="38" as="geometry">
            <mxRectangle width="100" height="38" as="alternateBounds" />
          </mxGeometry>
        </mxCell>
        <mxCell id="gl2pg5933DISATZ6bNUu-100" value="get_order_id( )" style="rounded=0;whiteSpace=wrap;html=1;fontSize=12;" vertex="1" parent="1">
          <mxGeometry x="-260" y="1220" width="440" height="40" as="geometry" />
        </mxCell>
        <mxCell id="gl2pg5933DISATZ6bNUu-101" value="OnApiOrderChanged(trade_order_id, status)" style="rounded=0;whiteSpace=wrap;html=1;fontSize=12;" vertex="1" parent="1">
          <mxGeometry x="-260" y="1280" width="440" height="40" as="geometry" />
        </mxCell>
        <mxCell id="gl2pg5933DISATZ6bNUu-102" value="OnApiOrderFilled(trade_order_id, trade_vol, trade_amount)" style="rounded=0;whiteSpace=wrap;html=1;fontSize=12;" vertex="1" parent="1">
          <mxGeometry x="-260" y="1340" width="440" height="40" as="geometry" />
        </mxCell>
      </root>
    </mxGraphModel>
  </diagram>
</mxfile>
